  0
SECTION
  2
BLOCKS
  0
ENDSEC
  0
SECTION
  2
ENTITIES
  0
LINE
  8
0
 10
0.000000
 11
0.000000
 20
0.000000
 21
71.438000
  0
LINE
  8
0
 10
0.000000
 11
72.000000
 20
71.438000
 21
71.438000
  0
LINE
  8
0
 10
72.000000
 11
72.000000
 20
71.438000
 21
0.000000
  0
LINE
  8
0
 10
72.000000
 11
0.000000
 20
0.000000
 21
0.000000
  0
LINE
  8
0
 10
1.619000
 11
1.619000
 20
3.668000
 21
4.270000
  0
LINE
  8
0
 10
1.619000
 11
1.769000
 20
4.270000
 21
4.852000
  0
LINE
  8
0
 10
1.769000
 11
2.058000
 20
4.852000
 21
5.379000
  0
LINE
  8
0
 10
2.058000
 11
2.470000
 20
5.379000
 21
5.818000
  0
LINE
  8
0
 10
2.470000
 11
2.978000
 20
5.818000
 21
6.140000
  0
LINE
  8
0
 10
2.978000
 11
3.550000
 20
6.140000
 21
6.326000
  0
LINE
  8
0
 10
3.550000
 11
4.151000
 20
6.326000
 21
6.364000
  0
LINE
  8
0
 10
4.151000
 11
4.742000
 20
6.364000
 21
6.251000
  0
LINE
  8
0
 10
4.742000
 11
5.286000
 20
6.251000
 21
5.995000
  0
LINE
  8
0
 10
5.286000
 11
5.750000
 20
5.995000
 21
5.612000
  0
LINE
  8
0
 10
5.750000
 11
6.103000
 20
5.612000
 21
5.125000
  0
LINE
  8
0
 10
6.103000
 11
6.325000
 20
5.125000
 21
4.566000
  0
LINE
  8
0
 10
6.325000
 11
6.400000
 20
4.566000
 21
3.969000
  0
LINE
  8
0
 10
6.400000
 11
6.325000
 20
3.969000
 21
3.372000
  0
LINE
  8
0
 10
6.325000
 11
6.103000
 20
3.372000
 21
2.813000
  0
LINE
  8
0
 10
6.103000
 11
5.750000
 20
2.813000
 21
2.326000
  0
LINE
  8
0
 10
5.750000
 11
5.286000
 20
2.326000
 21
1.942000
  0
LINE
  8
0
 10
5.286000
 11
4.742000
 20
1.942000
 21
1.686000
  0
LINE
  8
0
 10
4.742000
 11
4.151000
 20
1.686000
 21
1.573000
  0
LINE
  8
0
 10
4.151000
 11
3.550000
 20
1.573000
 21
1.611000
  0
LINE
  8
0
 10
3.550000
 11
2.978000
 20
1.611000
 21
1.797000
  0
LINE
  8
0
 10
2.978000
 11
2.470000
 20
1.797000
 21
2.120000
  0
LINE
  8
0
 10
2.470000
 11
2.058000
 20
2.120000
 21
2.558000
  0
LINE
  8
0
 10
2.058000
 11
1.769000
 20
2.558000
 21
3.085000
  0
LINE
  8
0
 10
1.769000
 11
1.619000
 20
3.085000
 21
3.668000
  0
LINE
  8
0
 10
1.619000
 11
1.619000
 20
67.168000
 21
67.770000
  0
LINE
  8
0
 10
1.619000
 11
1.769000
 20
67.770000
 21
68.352000
  0
LINE
  8
0
 10
1.769000
 11
2.058000
 20
68.352000
 21
68.879000
  0
LINE
  8
0
 10
2.058000
 11
2.470000
 20
68.879000
 21
69.318000
  0
LINE
  8
0
 10
2.470000
 11
2.978000
 20
69.318000
 21
69.640000
  0
LINE
  8
0
 10
2.978000
 11
3.550000
 20
69.640000
 21
69.826000
  0
LINE
  8
0
 10
3.550000
 11
4.151000
 20
69.826000
 21
69.864000
  0
LINE
  8
0
 10
4.151000
 11
4.742000
 20
69.864000
 21
69.751000
  0
LINE
  8
0
 10
4.742000
 11
5.286000
 20
69.751000
 21
69.495000
  0
LINE
  8
0
 10
5.286000
 11
5.750000
 20
69.495000
 21
69.112000
  0
LINE
  8
0
 10
5.750000
 11
6.103000
 20
69.112000
 21
68.625000
  0
LINE
  8
0
 10
6.103000
 11
6.325000
 20
68.625000
 21
68.066000
  0
LINE
  8
0
 10
6.325000
 11
6.400000
 20
68.066000
 21
67.469000
  0
LINE
  8
0
 10
6.400000
 11
6.325000
 20
67.469000
 21
66.872000
  0
LINE
  8
0
 10
6.325000
 11
6.103000
 20
66.872000
 21
66.313000
  0
LINE
  8
0
 10
6.103000
 11
5.750000
 20
66.313000
 21
65.826000
  0
LINE
  8
0
 10
5.750000
 11
5.286000
 20
65.826000
 21
65.442000
  0
LINE
  8
0
 10
5.286000
 11
4.742000
 20
65.442000
 21
65.186000
  0
LINE
  8
0
 10
4.742000
 11
4.151000
 20
65.186000
 21
65.073000
  0
LINE
  8
0
 10
4.151000
 11
3.550000
 20
65.073000
 21
65.111000
  0
LINE
  8
0
 10
3.550000
 11
2.978000
 20
65.111000
 21
65.297000
  0
LINE
  8
0
 10
2.978000
 11
2.470000
 20
65.297000
 21
65.620000
  0
LINE
  8
0
 10
2.470000
 11
2.058000
 20
65.620000
 21
66.058000
  0
LINE
  8
0
 10
2.058000
 11
1.769000
 20
66.058000
 21
66.585000
  0
LINE
  8
0
 10
1.769000
 11
1.619000
 20
66.585000
 21
67.168000
  0
LINE
  8
0
 10
9.619000
 11
9.619000
 20
3.668000
 21
4.270000
  0
LINE
  8
0
 10
9.619000
 11
9.769000
 20
4.270000
 21
4.852000
  0
LINE
  8
0
 10
9.769000
 11
10.058000
 20
4.852000
 21
5.379000
  0
LINE
  8
0
 10
10.058000
 11
10.470000
 20
5.379000
 21
5.818000
  0
LINE
  8
0
 10
10.470000
 11
10.978000
 20
5.818000
 21
6.140000
  0
LINE
  8
0
 10
10.978000
 11
11.550000
 20
6.140000
 21
6.326000
  0
LINE
  8
0
 10
11.550000
 11
12.151000
 20
6.326000
 21
6.364000
  0
LINE
  8
0
 10
12.151000
 11
12.742000
 20
6.364000
 21
6.251000
  0
LINE
  8
0
 10
12.742000
 11
13.286000
 20
6.251000
 21
5.995000
  0
LINE
  8
0
 10
13.286000
 11
13.750000
 20
5.995000
 21
5.612000
  0
LINE
  8
0
 10
13.750000
 11
14.103000
 20
5.612000
 21
5.125000
  0
LINE
  8
0
 10
14.103000
 11
14.325000
 20
5.125000
 21
4.566000
  0
LINE
  8
0
 10
14.325000
 11
14.400000
 20
4.566000
 21
3.969000
  0
LINE
  8
0
 10
14.400000
 11
14.325000
 20
3.969000
 21
3.372000
  0
LINE
  8
0
 10
14.325000
 11
14.103000
 20
3.372000
 21
2.813000
  0
LINE
  8
0
 10
14.103000
 11
13.750000
 20
2.813000
 21
2.326000
  0
LINE
  8
0
 10
13.750000
 11
13.286000
 20
2.326000
 21
1.942000
  0
LINE
  8
0
 10
13.286000
 11
12.742000
 20
1.942000
 21
1.686000
  0
LINE
  8
0
 10
12.742000
 11
12.151000
 20
1.686000
 21
1.573000
  0
LINE
  8
0
 10
12.151000
 11
11.550000
 20
1.573000
 21
1.611000
  0
LINE
  8
0
 10
11.550000
 11
10.978000
 20
1.611000
 21
1.797000
  0
LINE
  8
0
 10
10.978000
 11
10.470000
 20
1.797000
 21
2.120000
  0
LINE
  8
0
 10
10.470000
 11
10.058000
 20
2.120000
 21
2.558000
  0
LINE
  8
0
 10
10.058000
 11
9.769000
 20
2.558000
 21
3.085000
  0
LINE
  8
0
 10
9.769000
 11
9.619000
 20
3.085000
 21
3.668000
  0
LINE
  8
0
 10
9.619000
 11
9.619000
 20
67.168000
 21
67.770000
  0
LINE
  8
0
 10
9.619000
 11
9.769000
 20
67.770000
 21
68.352000
  0
LINE
  8
0
 10
9.769000
 11
10.058000
 20
68.352000
 21
68.879000
  0
LINE
  8
0
 10
10.058000
 11
10.470000
 20
68.879000
 21
69.318000
  0
LINE
  8
0
 10
10.470000
 11
10.978000
 20
69.318000
 21
69.640000
  0
LINE
  8
0
 10
10.978000
 11
11.550000
 20
69.640000
 21
69.826000
  0
LINE
  8
0
 10
11.550000
 11
12.151000
 20
69.826000
 21
69.864000
  0
LINE
  8
0
 10
12.151000
 11
12.742000
 20
69.864000
 21
69.751000
  0
LINE
  8
0
 10
12.742000
 11
13.286000
 20
69.751000
 21
69.495000
  0
LINE
  8
0
 10
13.286000
 11
13.750000
 20
69.495000
 21
69.112000
  0
LINE
  8
0
 10
13.750000
 11
14.103000
 20
69.112000
 21
68.625000
  0
LINE
  8
0
 10
14.103000
 11
14.325000
 20
68.625000
 21
68.066000
  0
LINE
  8
0
 10
14.325000
 11
14.400000
 20
68.066000
 21
67.469000
  0
LINE
  8
0
 10
14.400000
 11
14.325000
 20
67.469000
 21
66.872000
  0
LINE
  8
0
 10
14.325000
 11
14.103000
 20
66.872000
 21
66.313000
  0
LINE
  8
0
 10
14.103000
 11
13.750000
 20
66.313000
 21
65.826000
  0
LINE
  8
0
 10
13.750000
 11
13.286000
 20
65.826000
 21
65.442000
  0
LINE
  8
0
 10
13.286000
 11
12.742000
 20
65.442000
 21
65.186000
  0
LINE
  8
0
 10
12.742000
 11
12.151000
 20
65.186000
 21
65.073000
  0
LINE
  8
0
 10
12.151000
 11
11.550000
 20
65.073000
 21
65.111000
  0
LINE
  8
0
 10
11.550000
 11
10.978000
 20
65.111000
 21
65.297000
  0
LINE
  8
0
 10
10.978000
 11
10.470000
 20
65.297000
 21
65.620000
  0
LINE
  8
0
 10
10.470000
 11
10.058000
 20
65.620000
 21
66.058000
  0
LINE
  8
0
 10
10.058000
 11
9.769000
 20
66.058000
 21
66.585000
  0
LINE
  8
0
 10
9.769000
 11
9.619000
 20
66.585000
 21
67.168000
  0
LINE
  8
0
 10
14.419000
 11
14.419000
 20
11.409000
 21
11.785000
  0
LINE
  8
0
 10
14.419000
 11
14.512000
 20
11.785000
 21
12.149000
  0
LINE
  8
0
 10
14.512000
 11
14.694000
 20
12.149000
 21
12.479000
  0
LINE
  8
0
 10
14.694000
 11
14.951000
 20
12.479000
 21
12.753000
  0
LINE
  8
0
 10
14.951000
 11
15.268000
 20
12.753000
 21
12.955000
  0
LINE
  8
0
 10
15.268000
 11
15.626000
 20
12.955000
 21
13.071000
  0
LINE
  8
0
 10
15.626000
 11
16.001000
 20
13.071000
 21
13.094000
  0
LINE
  8
0
 10
16.001000
 11
16.371000
 20
13.094000
 21
13.024000
  0
LINE
  8
0
 10
16.371000
 11
16.711000
 20
13.024000
 21
12.864000
  0
LINE
  8
0
 10
16.711000
 11
17.001000
 20
12.864000
 21
12.624000
  0
LINE
  8
0
 10
17.001000
 11
17.222000
 20
12.624000
 21
12.320000
  0
LINE
  8
0
 10
17.222000
 11
17.360000
 20
12.320000
 21
11.970000
  0
LINE
  8
0
 10
17.360000
 11
17.407000
 20
11.970000
 21
11.597000
  0
LINE
  8
0
 10
17.407000
 11
17.360000
 20
11.597000
 21
11.224000
  0
LINE
  8
0
 10
17.360000
 11
17.222000
 20
11.224000
 21
10.875000
  0
LINE
  8
0
 10
17.222000
 11
17.001000
 20
10.875000
 21
10.570000
  0
LINE
  8
0
 10
17.001000
 11
16.711000
 20
10.570000
 21
10.331000
  0
LINE
  8
0
 10
16.711000
 11
16.371000
 20
10.331000
 21
10.171000
  0
LINE
  8
0
 10
16.371000
 11
16.001000
 20
10.171000
 21
10.100000
  0
LINE
  8
0
 10
16.001000
 11
15.626000
 20
10.100000
 21
10.124000
  0
LINE
  8
0
 10
15.626000
 11
15.268000
 20
10.124000
 21
10.240000
  0
LINE
  8
0
 10
15.268000
 11
14.951000
 20
10.240000
 21
10.442000
  0
LINE
  8
0
 10
14.951000
 11
14.694000
 20
10.442000
 21
10.716000
  0
LINE
  8
0
 10
14.694000
 11
14.512000
 20
10.716000
 21
11.045000
  0
LINE
  8
0
 10
14.512000
 11
14.419000
 20
11.045000
 21
11.409000
  0
LINE
  8
0
 10
15.512000
 11
15.512000
 20
59.812000
 21
60.188000
  0
LINE
  8
0
 10
15.512000
 11
15.605000
 20
60.188000
 21
60.552000
  0
LINE
  8
0
 10
15.605000
 11
15.786000
 20
60.552000
 21
60.882000
  0
LINE
  8
0
 10
15.786000
 11
16.044000
 20
60.882000
 21
61.156000
  0
LINE
  8
0
 10
16.044000
 11
16.361000
 20
61.156000
 21
61.357000
  0
LINE
  8
0
 10
16.361000
 11
16.719000
 20
61.357000
 21
61.473000
  0
LINE
  8
0
 10
16.719000
 11
17.094000
 20
61.473000
 21
61.497000
  0
LINE
  8
0
 10
17.094000
 11
17.464000
 20
61.497000
 21
61.427000
  0
LINE
  8
0
 10
17.464000
 11
17.804000
 20
61.427000
 21
61.266000
  0
LINE
  8
0
 10
17.804000
 11
18.093000
 20
61.266000
 21
61.027000
  0
LINE
  8
0
 10
18.093000
 11
18.314000
 20
61.027000
 21
60.723000
  0
LINE
  8
0
 10
18.314000
 11
18.453000
 20
60.723000
 21
60.373000
  0
LINE
  8
0
 10
18.453000
 11
18.500000
 20
60.373000
 21
60.000000
  0
LINE
  8
0
 10
18.500000
 11
18.453000
 20
60.000000
 21
59.627000
  0
LINE
  8
0
 10
18.453000
 11
18.314000
 20
59.627000
 21
59.277000
  0
LINE
  8
0
 10
18.314000
 11
18.093000
 20
59.277000
 21
58.973000
  0
LINE
  8
0
 10
18.093000
 11
17.804000
 20
58.973000
 21
58.734000
  0
LINE
  8
0
 10
17.804000
 11
17.464000
 20
58.734000
 21
58.573000
  0
LINE
  8
0
 10
17.464000
 11
17.094000
 20
58.573000
 21
58.503000
  0
LINE
  8
0
 10
17.094000
 11
16.719000
 20
58.503000
 21
58.527000
  0
LINE
  8
0
 10
16.719000
 11
16.361000
 20
58.527000
 21
58.643000
  0
LINE
  8
0
 10
16.361000
 11
16.044000
 20
58.643000
 21
58.844000
  0
LINE
  8
0
 10
16.044000
 11
15.786000
 20
58.844000
 21
59.118000
  0
LINE
  8
0
 10
15.786000
 11
15.605000
 20
59.118000
 21
59.448000
  0
LINE
  8
0
 10
15.605000
 11
15.512000
 20
59.448000
 21
59.812000
  0
LINE
  8
0
 10
17.619000
 11
17.619000
 20
3.668000
 21
4.270000
  0
LINE
  8
0
 10
17.619000
 11
17.769000
 20
4.270000
 21
4.852000
  0
LINE
  8
0
 10
17.769000
 11
18.058000
 20
4.852000
 21
5.379000
  0
LINE
  8
0
 10
18.058000
 11
18.470000
 20
5.379000
 21
5.818000
  0
LINE
  8
0
 10
18.470000
 11
18.978000
 20
5.818000
 21
6.140000
  0
LINE
  8
0
 10
18.978000
 11
19.550000
 20
6.140000
 21
6.326000
  0
LINE
  8
0
 10
19.550000
 11
20.151000
 20
6.326000
 21
6.364000
  0
LINE
  8
0
 10
20.151000
 11
20.742000
 20
6.364000
 21
6.251000
  0
LINE
  8
0
 10
20.742000
 11
21.286000
 20
6.251000
 21
5.995000
  0
LINE
  8
0
 10
21.286000
 11
21.750000
 20
5.995000
 21
5.612000
  0
LINE
  8
0
 10
21.750000
 11
22.103000
 20
5.612000
 21
5.125000
  0
LINE
  8
0
 10
22.103000
 11
22.325000
 20
5.125000
 21
4.566000
  0
LINE
  8
0
 10
22.325000
 11
22.400000
 20
4.566000
 21
3.969000
  0
LINE
  8
0
 10
22.400000
 11
22.325000
 20
3.969000
 21
3.372000
  0
LINE
  8
0
 10
22.325000
 11
22.103000
 20
3.372000
 21
2.813000
  0
LINE
  8
0
 10
22.103000
 11
21.750000
 20
2.813000
 21
2.326000
  0
LINE
  8
0
 10
21.750000
 11
21.286000
 20
2.326000
 21
1.942000
  0
LINE
  8
0
 10
21.286000
 11
20.742000
 20
1.942000
 21
1.686000
  0
LINE
  8
0
 10
20.742000
 11
20.151000
 20
1.686000
 21
1.573000
  0
LINE
  8
0
 10
20.151000
 11
19.550000
 20
1.573000
 21
1.611000
  0
LINE
  8
0
 10
19.550000
 11
18.978000
 20
1.611000
 21
1.797000
  0
LINE
  8
0
 10
18.978000
 11
18.470000
 20
1.797000
 21
2.120000
  0
LINE
  8
0
 10
18.470000
 11
18.058000
 20
2.120000
 21
2.558000
  0
LINE
  8
0
 10
18.058000
 11
17.769000
 20
2.558000
 21
3.085000
  0
LINE
  8
0
 10
17.769000
 11
17.619000
 20
3.085000
 21
3.668000
  0
LINE
  8
0
 10
17.619000
 11
17.619000
 20
67.168000
 21
67.770000
  0
LINE
  8
0
 10
17.619000
 11
17.769000
 20
67.770000
 21
68.352000
  0
LINE
  8
0
 10
17.769000
 11
18.058000
 20
68.352000
 21
68.879000
  0
LINE
  8
0
 10
18.058000
 11
18.470000
 20
68.879000
 21
69.318000
  0
LINE
  8
0
 10
18.470000
 11
18.978000
 20
69.318000
 21
69.640000
  0
LINE
  8
0
 10
18.978000
 11
19.550000
 20
69.640000
 21
69.826000
  0
LINE
  8
0
 10
19.550000
 11
20.151000
 20
69.826000
 21
69.864000
  0
LINE
  8
0
 10
20.151000
 11
20.742000
 20
69.864000
 21
69.751000
  0
LINE
  8
0
 10
20.742000
 11
21.286000
 20
69.751000
 21
69.495000
  0
LINE
  8
0
 10
21.286000
 11
21.750000
 20
69.495000
 21
69.112000
  0
LINE
  8
0
 10
21.750000
 11
22.103000
 20
69.112000
 21
68.625000
  0
LINE
  8
0
 10
22.103000
 11
22.325000
 20
68.625000
 21
68.066000
  0
LINE
  8
0
 10
22.325000
 11
22.400000
 20
68.066000
 21
67.469000
  0
LINE
  8
0
 10
22.400000
 11
22.325000
 20
67.469000
 21
66.872000
  0
LINE
  8
0
 10
22.325000
 11
22.103000
 20
66.872000
 21
66.313000
  0
LINE
  8
0
 10
22.103000
 11
21.750000
 20
66.313000
 21
65.826000
  0
LINE
  8
0
 10
21.750000
 11
21.286000
 20
65.826000
 21
65.442000
  0
LINE
  8
0
 10
21.286000
 11
20.742000
 20
65.442000
 21
65.186000
  0
LINE
  8
0
 10
20.742000
 11
20.151000
 20
65.186000
 21
65.073000
  0
LINE
  8
0
 10
20.151000
 11
19.550000
 20
65.073000
 21
65.111000
  0
LINE
  8
0
 10
19.550000
 11
18.978000
 20
65.111000
 21
65.297000
  0
LINE
  8
0
 10
18.978000
 11
18.470000
 20
65.297000
 21
65.620000
  0
LINE
  8
0
 10
18.470000
 11
18.058000
 20
65.620000
 21
66.058000
  0
LINE
  8
0
 10
18.058000
 11
17.769000
 20
66.058000
 21
66.585000
  0
LINE
  8
0
 10
17.769000
 11
17.619000
 20
66.585000
 21
67.168000
  0
LINE
  8
0
 10
25.619000
 11
25.619000
 20
3.668000
 21
4.270000
  0
LINE
  8
0
 10
25.619000
 11
25.769000
 20
4.270000
 21
4.852000
  0
LINE
  8
0
 10
25.769000
 11
26.058000
 20
4.852000
 21
5.379000
  0
LINE
  8
0
 10
26.058000
 11
26.470000
 20
5.379000
 21
5.818000
  0
LINE
  8
0
 10
26.470000
 11
26.978000
 20
5.818000
 21
6.140000
  0
LINE
  8
0
 10
26.978000
 11
27.550000
 20
6.140000
 21
6.326000
  0
LINE
  8
0
 10
27.550000
 11
28.151000
 20
6.326000
 21
6.364000
  0
LINE
  8
0
 10
28.151000
 11
28.742000
 20
6.364000
 21
6.251000
  0
LINE
  8
0
 10
28.742000
 11
29.286000
 20
6.251000
 21
5.995000
  0
LINE
  8
0
 10
29.286000
 11
29.750000
 20
5.995000
 21
5.612000
  0
LINE
  8
0
 10
29.750000
 11
30.103000
 20
5.612000
 21
5.125000
  0
LINE
  8
0
 10
30.103000
 11
30.325000
 20
5.125000
 21
4.566000
  0
LINE
  8
0
 10
30.325000
 11
30.400000
 20
4.566000
 21
3.969000
  0
LINE
  8
0
 10
30.400000
 11
30.325000
 20
3.969000
 21
3.372000
  0
LINE
  8
0
 10
30.325000
 11
30.103000
 20
3.372000
 21
2.813000
  0
LINE
  8
0
 10
30.103000
 11
29.750000
 20
2.813000
 21
2.326000
  0
LINE
  8
0
 10
29.750000
 11
29.286000
 20
2.326000
 21
1.942000
  0
LINE
  8
0
 10
29.286000
 11
28.742000
 20
1.942000
 21
1.686000
  0
LINE
  8
0
 10
28.742000
 11
28.151000
 20
1.686000
 21
1.573000
  0
LINE
  8
0
 10
28.151000
 11
27.550000
 20
1.573000
 21
1.611000
  0
LINE
  8
0
 10
27.550000
 11
26.978000
 20
1.611000
 21
1.797000
  0
LINE
  8
0
 10
26.978000
 11
26.470000
 20
1.797000
 21
2.120000
  0
LINE
  8
0
 10
26.470000
 11
26.058000
 20
2.120000
 21
2.558000
  0
LINE
  8
0
 10
26.058000
 11
25.769000
 20
2.558000
 21
3.085000
  0
LINE
  8
0
 10
25.769000
 11
25.619000
 20
3.085000
 21
3.668000
  0
LINE
  8
0
 10
25.619000
 11
25.619000
 20
67.168000
 21
67.770000
  0
LINE
  8
0
 10
25.619000
 11
25.769000
 20
67.770000
 21
68.352000
  0
LINE
  8
0
 10
25.769000
 11
26.058000
 20
68.352000
 21
68.879000
  0
LINE
  8
0
 10
26.058000
 11
26.470000
 20
68.879000
 21
69.318000
  0
LINE
  8
0
 10
26.470000
 11
26.978000
 20
69.318000
 21
69.640000
  0
LINE
  8
0
 10
26.978000
 11
27.550000
 20
69.640000
 21
69.826000
  0
LINE
  8
0
 10
27.550000
 11
28.151000
 20
69.826000
 21
69.864000
  0
LINE
  8
0
 10
28.151000
 11
28.742000
 20
69.864000
 21
69.751000
  0
LINE
  8
0
 10
28.742000
 11
29.286000
 20
69.751000
 21
69.495000
  0
LINE
  8
0
 10
29.286000
 11
29.750000
 20
69.495000
 21
69.112000
  0
LINE
  8
0
 10
29.750000
 11
30.103000
 20
69.112000
 21
68.625000
  0
LINE
  8
0
 10
30.103000
 11
30.325000
 20
68.625000
 21
68.066000
  0
LINE
  8
0
 10
30.325000
 11
30.400000
 20
68.066000
 21
67.469000
  0
LINE
  8
0
 10
30.400000
 11
30.325000
 20
67.469000
 21
66.872000
  0
LINE
  8
0
 10
30.325000
 11
30.103000
 20
66.872000
 21
66.313000
  0
LINE
  8
0
 10
30.103000
 11
29.750000
 20
66.313000
 21
65.826000
  0
LINE
  8
0
 10
29.750000
 11
29.286000
 20
65.826000
 21
65.442000
  0
LINE
  8
0
 10
29.286000
 11
28.742000
 20
65.442000
 21
65.186000
  0
LINE
  8
0
 10
28.742000
 11
28.151000
 20
65.186000
 21
65.073000
  0
LINE
  8
0
 10
28.151000
 11
27.550000
 20
65.073000
 21
65.111000
  0
LINE
  8
0
 10
27.550000
 11
26.978000
 20
65.111000
 21
65.297000
  0
LINE
  8
0
 10
26.978000
 11
26.470000
 20
65.297000
 21
65.620000
  0
LINE
  8
0
 10
26.470000
 11
26.058000
 20
65.620000
 21
66.058000
  0
LINE
  8
0
 10
26.058000
 11
25.769000
 20
66.058000
 21
66.585000
  0
LINE
  8
0
 10
25.769000
 11
25.619000
 20
66.585000
 21
67.168000
  0
LINE
  8
0
 10
33.619000
 11
33.619000
 20
3.668000
 21
4.270000
  0
LINE
  8
0
 10
33.619000
 11
33.769000
 20
4.270000
 21
4.852000
  0
LINE
  8
0
 10
33.769000
 11
34.058000
 20
4.852000
 21
5.379000
  0
LINE
  8
0
 10
34.058000
 11
34.470000
 20
5.379000
 21
5.818000
  0
LINE
  8
0
 10
34.470000
 11
34.978000
 20
5.818000
 21
6.140000
  0
LINE
  8
0
 10
34.978000
 11
35.550000
 20
6.140000
 21
6.326000
  0
LINE
  8
0
 10
35.550000
 11
36.151000
 20
6.326000
 21
6.364000
  0
LINE
  8
0
 10
36.151000
 11
36.742000
 20
6.364000
 21
6.251000
  0
LINE
  8
0
 10
36.742000
 11
37.286000
 20
6.251000
 21
5.995000
  0
LINE
  8
0
 10
37.286000
 11
37.750000
 20
5.995000
 21
5.612000
  0
LINE
  8
0
 10
37.750000
 11
38.103000
 20
5.612000
 21
5.125000
  0
LINE
  8
0
 10
38.103000
 11
38.325000
 20
5.125000
 21
4.566000
  0
LINE
  8
0
 10
38.325000
 11
38.400000
 20
4.566000
 21
3.969000
  0
LINE
  8
0
 10
38.400000
 11
38.325000
 20
3.969000
 21
3.372000
  0
LINE
  8
0
 10
38.325000
 11
38.103000
 20
3.372000
 21
2.813000
  0
LINE
  8
0
 10
38.103000
 11
37.750000
 20
2.813000
 21
2.326000
  0
LINE
  8
0
 10
37.750000
 11
37.286000
 20
2.326000
 21
1.942000
  0
LINE
  8
0
 10
37.286000
 11
36.742000
 20
1.942000
 21
1.686000
  0
LINE
  8
0
 10
36.742000
 11
36.151000
 20
1.686000
 21
1.573000
  0
LINE
  8
0
 10
36.151000
 11
35.550000
 20
1.573000
 21
1.611000
  0
LINE
  8
0
 10
35.550000
 11
34.978000
 20
1.611000
 21
1.797000
  0
LINE
  8
0
 10
34.978000
 11
34.470000
 20
1.797000
 21
2.120000
  0
LINE
  8
0
 10
34.470000
 11
34.058000
 20
2.120000
 21
2.558000
  0
LINE
  8
0
 10
34.058000
 11
33.769000
 20
2.558000
 21
3.085000
  0
LINE
  8
0
 10
33.769000
 11
33.619000
 20
3.085000
 21
3.668000
  0
LINE
  8
0
 10
33.619000
 11
33.619000
 20
67.168000
 21
67.770000
  0
LINE
  8
0
 10
33.619000
 11
33.769000
 20
67.770000
 21
68.352000
  0
LINE
  8
0
 10
33.769000
 11
34.058000
 20
68.352000
 21
68.879000
  0
LINE
  8
0
 10
34.058000
 11
34.470000
 20
68.879000
 21
69.318000
  0
LINE
  8
0
 10
34.470000
 11
34.978000
 20
69.318000
 21
69.640000
  0
LINE
  8
0
 10
34.978000
 11
35.550000
 20
69.640000
 21
69.826000
  0
LINE
  8
0
 10
35.550000
 11
36.151000
 20
69.826000
 21
69.864000
  0
LINE
  8
0
 10
36.151000
 11
36.742000
 20
69.864000
 21
69.751000
  0
LINE
  8
0
 10
36.742000
 11
37.286000
 20
69.751000
 21
69.495000
  0
LINE
  8
0
 10
37.286000
 11
37.750000
 20
69.495000
 21
69.112000
  0
LINE
  8
0
 10
37.750000
 11
38.103000
 20
69.112000
 21
68.625000
  0
LINE
  8
0
 10
38.103000
 11
38.325000
 20
68.625000
 21
68.066000
  0
LINE
  8
0
 10
38.325000
 11
38.400000
 20
68.066000
 21
67.469000
  0
LINE
  8
0
 10
38.400000
 11
38.325000
 20
67.469000
 21
66.872000
  0
LINE
  8
0
 10
38.325000
 11
38.103000
 20
66.872000
 21
66.313000
  0
LINE
  8
0
 10
38.103000
 11
37.750000
 20
66.313000
 21
65.826000
  0
LINE
  8
0
 10
37.750000
 11
37.286000
 20
65.826000
 21
65.442000
  0
LINE
  8
0
 10
37.286000
 11
36.742000
 20
65.442000
 21
65.186000
  0
LINE
  8
0
 10
36.742000
 11
36.151000
 20
65.186000
 21
65.073000
  0
LINE
  8
0
 10
36.151000
 11
35.550000
 20
65.073000
 21
65.111000
  0
LINE
  8
0
 10
35.550000
 11
34.978000
 20
65.111000
 21
65.297000
  0
LINE
  8
0
 10
34.978000
 11
34.470000
 20
65.297000
 21
65.620000
  0
LINE
  8
0
 10
34.470000
 11
34.058000
 20
65.620000
 21
66.058000
  0
LINE
  8
0
 10
34.058000
 11
33.769000
 20
66.058000
 21
66.585000
  0
LINE
  8
0
 10
33.769000
 11
33.619000
 20
66.585000
 21
67.168000
  0
LINE
  8
0
 10
41.619000
 11
41.619000
 20
3.668000
 21
4.270000
  0
LINE
  8
0
 10
41.619000
 11
41.769000
 20
4.270000
 21
4.852000
  0
LINE
  8
0
 10
41.769000
 11
42.058000
 20
4.852000
 21
5.379000
  0
LINE
  8
0
 10
42.058000
 11
42.470000
 20
5.379000
 21
5.818000
  0
LINE
  8
0
 10
42.470000
 11
42.978000
 20
5.818000
 21
6.140000
  0
LINE
  8
0
 10
42.978000
 11
43.550000
 20
6.140000
 21
6.326000
  0
LINE
  8
0
 10
43.550000
 11
44.151000
 20
6.326000
 21
6.364000
  0
LINE
  8
0
 10
44.151000
 11
44.742000
 20
6.364000
 21
6.251000
  0
LINE
  8
0
 10
44.742000
 11
45.286000
 20
6.251000
 21
5.995000
  0
LINE
  8
0
 10
45.286000
 11
45.750000
 20
5.995000
 21
5.612000
  0
LINE
  8
0
 10
45.750000
 11
46.103000
 20
5.612000
 21
5.125000
  0
LINE
  8
0
 10
46.103000
 11
46.325000
 20
5.125000
 21
4.566000
  0
LINE
  8
0
 10
46.325000
 11
46.400000
 20
4.566000
 21
3.969000
  0
LINE
  8
0
 10
46.400000
 11
46.325000
 20
3.969000
 21
3.372000
  0
LINE
  8
0
 10
46.325000
 11
46.103000
 20
3.372000
 21
2.813000
  0
LINE
  8
0
 10
46.103000
 11
45.750000
 20
2.813000
 21
2.326000
  0
LINE
  8
0
 10
45.750000
 11
45.286000
 20
2.326000
 21
1.942000
  0
LINE
  8
0
 10
45.286000
 11
44.742000
 20
1.942000
 21
1.686000
  0
LINE
  8
0
 10
44.742000
 11
44.151000
 20
1.686000
 21
1.573000
  0
LINE
  8
0
 10
44.151000
 11
43.550000
 20
1.573000
 21
1.611000
  0
LINE
  8
0
 10
43.550000
 11
42.978000
 20
1.611000
 21
1.797000
  0
LINE
  8
0
 10
42.978000
 11
42.470000
 20
1.797000
 21
2.120000
  0
LINE
  8
0
 10
42.470000
 11
42.058000
 20
2.120000
 21
2.558000
  0
LINE
  8
0
 10
42.058000
 11
41.769000
 20
2.558000
 21
3.085000
  0
LINE
  8
0
 10
41.769000
 11
41.619000
 20
3.085000
 21
3.668000
  0
LINE
  8
0
 10
41.619000
 11
41.619000
 20
67.168000
 21
67.770000
  0
LINE
  8
0
 10
41.619000
 11
41.769000
 20
67.770000
 21
68.352000
  0
LINE
  8
0
 10
41.769000
 11
42.058000
 20
68.352000
 21
68.879000
  0
LINE
  8
0
 10
42.058000
 11
42.470000
 20
68.879000
 21
69.318000
  0
LINE
  8
0
 10
42.470000
 11
42.978000
 20
69.318000
 21
69.640000
  0
LINE
  8
0
 10
42.978000
 11
43.550000
 20
69.640000
 21
69.826000
  0
LINE
  8
0
 10
43.550000
 11
44.151000
 20
69.826000
 21
69.864000
  0
LINE
  8
0
 10
44.151000
 11
44.742000
 20
69.864000
 21
69.751000
  0
LINE
  8
0
 10
44.742000
 11
45.286000
 20
69.751000
 21
69.495000
  0
LINE
  8
0
 10
45.286000
 11
45.750000
 20
69.495000
 21
69.112000
  0
LINE
  8
0
 10
45.750000
 11
46.103000
 20
69.112000
 21
68.625000
  0
LINE
  8
0
 10
46.103000
 11
46.325000
 20
68.625000
 21
68.066000
  0
LINE
  8
0
 10
46.325000
 11
46.400000
 20
68.066000
 21
67.469000
  0
LINE
  8
0
 10
46.400000
 11
46.325000
 20
67.469000
 21
66.872000
  0
LINE
  8
0
 10
46.325000
 11
46.103000
 20
66.872000
 21
66.313000
  0
LINE
  8
0
 10
46.103000
 11
45.750000
 20
66.313000
 21
65.826000
  0
LINE
  8
0
 10
45.750000
 11
45.286000
 20
65.826000
 21
65.442000
  0
LINE
  8
0
 10
45.286000
 11
44.742000
 20
65.442000
 21
65.186000
  0
LINE
  8
0
 10
44.742000
 11
44.151000
 20
65.186000
 21
65.073000
  0
LINE
  8
0
 10
44.151000
 11
43.550000
 20
65.073000
 21
65.111000
  0
LINE
  8
0
 10
43.550000
 11
42.978000
 20
65.111000
 21
65.297000
  0
LINE
  8
0
 10
42.978000
 11
42.470000
 20
65.297000
 21
65.620000
  0
LINE
  8
0
 10
42.470000
 11
42.058000
 20
65.620000
 21
66.058000
  0
LINE
  8
0
 10
42.058000
 11
41.769000
 20
66.058000
 21
66.585000
  0
LINE
  8
0
 10
41.769000
 11
41.619000
 20
66.585000
 21
67.168000
  0
LINE
  8
0
 10
49.619000
 11
49.619000
 20
3.668000
 21
4.270000
  0
LINE
  8
0
 10
49.619000
 11
49.769000
 20
4.270000
 21
4.852000
  0
LINE
  8
0
 10
49.769000
 11
50.058000
 20
4.852000
 21
5.379000
  0
LINE
  8
0
 10
50.058000
 11
50.470000
 20
5.379000
 21
5.818000
  0
LINE
  8
0
 10
50.470000
 11
50.978000
 20
5.818000
 21
6.140000
  0
LINE
  8
0
 10
50.978000
 11
51.550000
 20
6.140000
 21
6.326000
  0
LINE
  8
0
 10
51.550000
 11
52.151000
 20
6.326000
 21
6.364000
  0
LINE
  8
0
 10
52.151000
 11
52.742000
 20
6.364000
 21
6.251000
  0
LINE
  8
0
 10
52.742000
 11
53.286000
 20
6.251000
 21
5.995000
  0
LINE
  8
0
 10
53.286000
 11
53.750000
 20
5.995000
 21
5.612000
  0
LINE
  8
0
 10
53.750000
 11
54.103000
 20
5.612000
 21
5.125000
  0
LINE
  8
0
 10
54.103000
 11
54.325000
 20
5.125000
 21
4.566000
  0
LINE
  8
0
 10
54.325000
 11
54.400000
 20
4.566000
 21
3.969000
  0
LINE
  8
0
 10
54.400000
 11
54.325000
 20
3.969000
 21
3.372000
  0
LINE
  8
0
 10
54.325000
 11
54.103000
 20
3.372000
 21
2.813000
  0
LINE
  8
0
 10
54.103000
 11
53.750000
 20
2.813000
 21
2.326000
  0
LINE
  8
0
 10
53.750000
 11
53.286000
 20
2.326000
 21
1.942000
  0
LINE
  8
0
 10
53.286000
 11
52.742000
 20
1.942000
 21
1.686000
  0
LINE
  8
0
 10
52.742000
 11
52.151000
 20
1.686000
 21
1.573000
  0
LINE
  8
0
 10
52.151000
 11
51.550000
 20
1.573000
 21
1.611000
  0
LINE
  8
0
 10
51.550000
 11
50.978000
 20
1.611000
 21
1.797000
  0
LINE
  8
0
 10
50.978000
 11
50.470000
 20
1.797000
 21
2.120000
  0
LINE
  8
0
 10
50.470000
 11
50.058000
 20
2.120000
 21
2.558000
  0
LINE
  8
0
 10
50.058000
 11
49.769000
 20
2.558000
 21
3.085000
  0
LINE
  8
0
 10
49.769000
 11
49.619000
 20
3.085000
 21
3.668000
  0
LINE
  8
0
 10
49.619000
 11
49.619000
 20
67.168000
 21
67.770000
  0
LINE
  8
0
 10
49.619000
 11
49.769000
 20
67.770000
 21
68.352000
  0
LINE
  8
0
 10
49.769000
 11
50.058000
 20
68.352000
 21
68.879000
  0
LINE
  8
0
 10
50.058000
 11
50.470000
 20
68.879000
 21
69.318000
  0
LINE
  8
0
 10
50.470000
 11
50.978000
 20
69.318000
 21
69.640000
  0
LINE
  8
0
 10
50.978000
 11
51.550000
 20
69.640000
 21
69.826000
  0
LINE
  8
0
 10
51.550000
 11
52.151000
 20
69.826000
 21
69.864000
  0
LINE
  8
0
 10
52.151000
 11
52.742000
 20
69.864000
 21
69.751000
  0
LINE
  8
0
 10
52.742000
 11
53.286000
 20
69.751000
 21
69.495000
  0
LINE
  8
0
 10
53.286000
 11
53.750000
 20
69.495000
 21
69.112000
  0
LINE
  8
0
 10
53.750000
 11
54.103000
 20
69.112000
 21
68.625000
  0
LINE
  8
0
 10
54.103000
 11
54.325000
 20
68.625000
 21
68.066000
  0
LINE
  8
0
 10
54.325000
 11
54.400000
 20
68.066000
 21
67.469000
  0
LINE
  8
0
 10
54.400000
 11
54.325000
 20
67.469000
 21
66.872000
  0
LINE
  8
0
 10
54.325000
 11
54.103000
 20
66.872000
 21
66.313000
  0
LINE
  8
0
 10
54.103000
 11
53.750000
 20
66.313000
 21
65.826000
  0
LINE
  8
0
 10
53.750000
 11
53.286000
 20
65.826000
 21
65.442000
  0
LINE
  8
0
 10
53.286000
 11
52.742000
 20
65.442000
 21
65.186000
  0
LINE
  8
0
 10
52.742000
 11
52.151000
 20
65.186000
 21
65.073000
  0
LINE
  8
0
 10
52.151000
 11
51.550000
 20
65.073000
 21
65.111000
  0
LINE
  8
0
 10
51.550000
 11
50.978000
 20
65.111000
 21
65.297000
  0
LINE
  8
0
 10
50.978000
 11
50.470000
 20
65.297000
 21
65.620000
  0
LINE
  8
0
 10
50.470000
 11
50.058000
 20
65.620000
 21
66.058000
  0
LINE
  8
0
 10
50.058000
 11
49.769000
 20
66.058000
 21
66.585000
  0
LINE
  8
0
 10
49.769000
 11
49.619000
 20
66.585000
 21
67.168000
  0
LINE
  8
0
 10
57.619000
 11
57.619000
 20
3.668000
 21
4.270000
  0
LINE
  8
0
 10
57.619000
 11
57.769000
 20
4.270000
 21
4.852000
  0
LINE
  8
0
 10
57.769000
 11
58.058000
 20
4.852000
 21
5.379000
  0
LINE
  8
0
 10
58.058000
 11
58.470000
 20
5.379000
 21
5.818000
  0
LINE
  8
0
 10
58.470000
 11
58.978000
 20
5.818000
 21
6.140000
  0
LINE
  8
0
 10
58.978000
 11
59.550000
 20
6.140000
 21
6.326000
  0
LINE
  8
0
 10
59.550000
 11
60.151000
 20
6.326000
 21
6.364000
  0
LINE
  8
0
 10
60.151000
 11
60.742000
 20
6.364000
 21
6.251000
  0
LINE
  8
0
 10
60.742000
 11
61.286000
 20
6.251000
 21
5.995000
  0
LINE
  8
0
 10
61.286000
 11
61.750000
 20
5.995000
 21
5.612000
  0
LINE
  8
0
 10
61.750000
 11
62.103000
 20
5.612000
 21
5.125000
  0
LINE
  8
0
 10
62.103000
 11
62.325000
 20
5.125000
 21
4.566000
  0
LINE
  8
0
 10
62.325000
 11
62.400000
 20
4.566000
 21
3.969000
  0
LINE
  8
0
 10
62.400000
 11
62.325000
 20
3.969000
 21
3.372000
  0
LINE
  8
0
 10
62.325000
 11
62.103000
 20
3.372000
 21
2.813000
  0
LINE
  8
0
 10
62.103000
 11
61.750000
 20
2.813000
 21
2.326000
  0
LINE
  8
0
 10
61.750000
 11
61.286000
 20
2.326000
 21
1.942000
  0
LINE
  8
0
 10
61.286000
 11
60.742000
 20
1.942000
 21
1.686000
  0
LINE
  8
0
 10
60.742000
 11
60.151000
 20
1.686000
 21
1.573000
  0
LINE
  8
0
 10
60.151000
 11
59.550000
 20
1.573000
 21
1.611000
  0
LINE
  8
0
 10
59.550000
 11
58.978000
 20
1.611000
 21
1.797000
  0
LINE
  8
0
 10
58.978000
 11
58.470000
 20
1.797000
 21
2.120000
  0
LINE
  8
0
 10
58.470000
 11
58.058000
 20
2.120000
 21
2.558000
  0
LINE
  8
0
 10
58.058000
 11
57.769000
 20
2.558000
 21
3.085000
  0
LINE
  8
0
 10
57.769000
 11
57.619000
 20
3.085000
 21
3.668000
  0
LINE
  8
0
 10
57.619000
 11
57.619000
 20
67.168000
 21
67.770000
  0
LINE
  8
0
 10
57.619000
 11
57.769000
 20
67.770000
 21
68.352000
  0
LINE
  8
0
 10
57.769000
 11
58.058000
 20
68.352000
 21
68.879000
  0
LINE
  8
0
 10
58.058000
 11
58.470000
 20
68.879000
 21
69.318000
  0
LINE
  8
0
 10
58.470000
 11
58.978000
 20
69.318000
 21
69.640000
  0
LINE
  8
0
 10
58.978000
 11
59.550000
 20
69.640000
 21
69.826000
  0
LINE
  8
0
 10
59.550000
 11
60.151000
 20
69.826000
 21
69.864000
  0
LINE
  8
0
 10
60.151000
 11
60.742000
 20
69.864000
 21
69.751000
  0
LINE
  8
0
 10
60.742000
 11
61.286000
 20
69.751000
 21
69.495000
  0
LINE
  8
0
 10
61.286000
 11
61.750000
 20
69.495000
 21
69.112000
  0
LINE
  8
0
 10
61.750000
 11
62.103000
 20
69.112000
 21
68.625000
  0
LINE
  8
0
 10
62.103000
 11
62.325000
 20
68.625000
 21
68.066000
  0
LINE
  8
0
 10
62.325000
 11
62.400000
 20
68.066000
 21
67.469000
  0
LINE
  8
0
 10
62.400000
 11
62.325000
 20
67.469000
 21
66.872000
  0
LINE
  8
0
 10
62.325000
 11
62.103000
 20
66.872000
 21
66.313000
  0
LINE
  8
0
 10
62.103000
 11
61.750000
 20
66.313000
 21
65.826000
  0
LINE
  8
0
 10
61.750000
 11
61.286000
 20
65.826000
 21
65.442000
  0
LINE
  8
0
 10
61.286000
 11
60.742000
 20
65.442000
 21
65.186000
  0
LINE
  8
0
 10
60.742000
 11
60.151000
 20
65.186000
 21
65.073000
  0
LINE
  8
0
 10
60.151000
 11
59.550000
 20
65.073000
 21
65.111000
  0
LINE
  8
0
 10
59.550000
 11
58.978000
 20
65.111000
 21
65.297000
  0
LINE
  8
0
 10
58.978000
 11
58.470000
 20
65.297000
 21
65.620000
  0
LINE
  8
0
 10
58.470000
 11
58.058000
 20
65.620000
 21
66.058000
  0
LINE
  8
0
 10
58.058000
 11
57.769000
 20
66.058000
 21
66.585000
  0
LINE
  8
0
 10
57.769000
 11
57.619000
 20
66.585000
 21
67.168000
  0
LINE
  8
0
 10
65.619000
 11
65.619000
 20
3.668000
 21
4.270000
  0
LINE
  8
0
 10
65.619000
 11
65.769000
 20
4.270000
 21
4.852000
  0
LINE
  8
0
 10
65.769000
 11
66.058000
 20
4.852000
 21
5.379000
  0
LINE
  8
0
 10
66.058000
 11
66.470000
 20
5.379000
 21
5.818000
  0
LINE
  8
0
 10
66.470000
 11
66.978000
 20
5.818000
 21
6.140000
  0
LINE
  8
0
 10
66.978000
 11
67.550000
 20
6.140000
 21
6.326000
  0
LINE
  8
0
 10
67.550000
 11
68.151000
 20
6.326000
 21
6.364000
  0
LINE
  8
0
 10
68.151000
 11
68.742000
 20
6.364000
 21
6.251000
  0
LINE
  8
0
 10
68.742000
 11
69.286000
 20
6.251000
 21
5.995000
  0
LINE
  8
0
 10
69.286000
 11
69.750000
 20
5.995000
 21
5.612000
  0
LINE
  8
0
 10
69.750000
 11
70.103000
 20
5.612000
 21
5.125000
  0
LINE
  8
0
 10
70.103000
 11
70.325000
 20
5.125000
 21
4.566000
  0
LINE
  8
0
 10
70.325000
 11
70.400000
 20
4.566000
 21
3.969000
  0
LINE
  8
0
 10
70.400000
 11
70.325000
 20
3.969000
 21
3.372000
  0
LINE
  8
0
 10
70.325000
 11
70.103000
 20
3.372000
 21
2.813000
  0
LINE
  8
0
 10
70.103000
 11
69.750000
 20
2.813000
 21
2.326000
  0
LINE
  8
0
 10
69.750000
 11
69.286000
 20
2.326000
 21
1.942000
  0
LINE
  8
0
 10
69.286000
 11
68.742000
 20
1.942000
 21
1.686000
  0
LINE
  8
0
 10
68.742000
 11
68.151000
 20
1.686000
 21
1.573000
  0
LINE
  8
0
 10
68.151000
 11
67.550000
 20
1.573000
 21
1.611000
  0
LINE
  8
0
 10
67.550000
 11
66.978000
 20
1.611000
 21
1.797000
  0
LINE
  8
0
 10
66.978000
 11
66.470000
 20
1.797000
 21
2.120000
  0
LINE
  8
0
 10
66.470000
 11
66.058000
 20
2.120000
 21
2.558000
  0
LINE
  8
0
 10
66.058000
 11
65.769000
 20
2.558000
 21
3.085000
  0
LINE
  8
0
 10
65.769000
 11
65.619000
 20
3.085000
 21
3.668000
  0
LINE
  8
0
 10
65.619000
 11
65.619000
 20
67.168000
 21
67.770000
  0
LINE
  8
0
 10
65.619000
 11
65.769000
 20
67.770000
 21
68.352000
  0
LINE
  8
0
 10
65.769000
 11
66.058000
 20
68.352000
 21
68.879000
  0
LINE
  8
0
 10
66.058000
 11
66.470000
 20
68.879000
 21
69.318000
  0
LINE
  8
0
 10
66.470000
 11
66.978000
 20
69.318000
 21
69.640000
  0
LINE
  8
0
 10
66.978000
 11
67.550000
 20
69.640000
 21
69.826000
  0
LINE
  8
0
 10
67.550000
 11
68.151000
 20
69.826000
 21
69.864000
  0
LINE
  8
0
 10
68.151000
 11
68.742000
 20
69.864000
 21
69.751000
  0
LINE
  8
0
 10
68.742000
 11
69.286000
 20
69.751000
 21
69.495000
  0
LINE
  8
0
 10
69.286000
 11
69.750000
 20
69.495000
 21
69.112000
  0
LINE
  8
0
 10
69.750000
 11
70.103000
 20
69.112000
 21
68.625000
  0
LINE
  8
0
 10
70.103000
 11
70.325000
 20
68.625000
 21
68.066000
  0
LINE
  8
0
 10
70.325000
 11
70.400000
 20
68.066000
 21
67.469000
  0
LINE
  8
0
 10
70.400000
 11
70.325000
 20
67.469000
 21
66.872000
  0
LINE
  8
0
 10
70.325000
 11
70.103000
 20
66.872000
 21
66.313000
  0
LINE
  8
0
 10
70.103000
 11
69.750000
 20
66.313000
 21
65.826000
  0
LINE
  8
0
 10
69.750000
 11
69.286000
 20
65.826000
 21
65.442000
  0
LINE
  8
0
 10
69.286000
 11
68.742000
 20
65.442000
 21
65.186000
  0
LINE
  8
0
 10
68.742000
 11
68.151000
 20
65.186000
 21
65.073000
  0
LINE
  8
0
 10
68.151000
 11
67.550000
 20
65.073000
 21
65.111000
  0
LINE
  8
0
 10
67.550000
 11
66.978000
 20
65.111000
 21
65.297000
  0
LINE
  8
0
 10
66.978000
 11
66.470000
 20
65.297000
 21
65.620000
  0
LINE
  8
0
 10
66.470000
 11
66.058000
 20
65.620000
 21
66.058000
  0
LINE
  8
0
 10
66.058000
 11
65.769000
 20
66.058000
 21
66.585000
  0
LINE
  8
0
 10
65.769000
 11
65.619000
 20
66.585000
 21
67.168000
  0
LINE
  8
0
 10
66.512000
 11
66.512000
 20
16.562000
 21
16.938000
  0
LINE
  8
0
 10
66.512000
 11
66.605000
 20
16.938000
 21
17.302000
  0
LINE
  8
0
 10
66.605000
 11
66.786000
 20
17.302000
 21
17.632000
  0
LINE
  8
0
 10
66.786000
 11
67.044000
 20
17.632000
 21
17.906000
  0
LINE
  8
0
 10
67.044000
 11
67.361000
 20
17.906000
 21
18.107000
  0
LINE
  8
0
 10
67.361000
 11
67.719000
 20
18.107000
 21
18.223000
  0
LINE
  8
0
 10
67.719000
 11
68.094000
 20
18.223000
 21
18.247000
  0
LINE
  8
0
 10
68.094000
 11
68.464000
 20
18.247000
 21
18.177000
  0
LINE
  8
0
 10
68.464000
 11
68.804000
 20
18.177000
 21
18.016000
  0
LINE
  8
0
 10
68.804000
 11
69.093000
 20
18.016000
 21
17.777000
  0
LINE
  8
0
 10
69.093000
 11
69.314000
 20
17.777000
 21
17.473000
  0
LINE
  8
0
 10
69.314000
 11
69.453000
 20
17.473000
 21
17.123000
  0
LINE
  8
0
 10
69.453000
 11
69.500000
 20
17.123000
 21
16.750000
  0
LINE
  8
0
 10
69.500000
 11
69.453000
 20
16.750000
 21
16.377000
  0
LINE
  8
0
 10
69.453000
 11
69.314000
 20
16.377000
 21
16.027000
  0
LINE
  8
0
 10
69.314000
 11
69.093000
 20
16.027000
 21
15.723000
  0
LINE
  8
0
 10
69.093000
 11
68.804000
 20
15.723000
 21
15.484000
  0
LINE
  8
0
 10
68.804000
 11
68.464000
 20
15.484000
 21
15.323000
  0
LINE
  8
0
 10
68.464000
 11
68.094000
 20
15.323000
 21
15.253000
  0
LINE
  8
0
 10
68.094000
 11
67.719000
 20
15.253000
 21
15.277000
  0
LINE
  8
0
 10
67.719000
 11
67.361000
 20
15.277000
 21
15.393000
  0
LINE
  8
0
 10
67.361000
 11
67.044000
 20
15.393000
 21
15.594000
  0
LINE
  8
0
 10
67.044000
 11
66.786000
 20
15.594000
 21
15.868000
  0
LINE
  8
0
 10
66.786000
 11
66.605000
 20
15.868000
 21
16.198000
  0
LINE
  8
0
 10
66.605000
 11
66.512000
 20
16.198000
 21
16.562000
  0
LINE
  8
0
 10
66.512000
 11
66.512000
 20
44.562000
 21
44.938000
  0
LINE
  8
0
 10
66.512000
 11
66.605000
 20
44.938000
 21
45.302000
  0
LINE
  8
0
 10
66.605000
 11
66.786000
 20
45.302000
 21
45.632000
  0
LINE
  8
0
 10
66.786000
 11
67.044000
 20
45.632000
 21
45.906000
  0
LINE
  8
0
 10
67.044000
 11
67.361000
 20
45.906000
 21
46.107000
  0
LINE
  8
0
 10
67.361000
 11
67.719000
 20
46.107000
 21
46.223000
  0
LINE
  8
0
 10
67.719000
 11
68.094000
 20
46.223000
 21
46.247000
  0
LINE
  8
0
 10
68.094000
 11
68.464000
 20
46.247000
 21
46.177000
  0
LINE
  8
0
 10
68.464000
 11
68.804000
 20
46.177000
 21
46.016000
  0
LINE
  8
0
 10
68.804000
 11
69.093000
 20
46.016000
 21
45.777000
  0
LINE
  8
0
 10
69.093000
 11
69.314000
 20
45.777000
 21
45.473000
  0
LINE
  8
0
 10
69.314000
 11
69.453000
 20
45.473000
 21
45.123000
  0
LINE
  8
0
 10
69.453000
 11
69.500000
 20
45.123000
 21
44.750000
  0
LINE
  8
0
 10
69.500000
 11
69.453000
 20
44.750000
 21
44.377000
  0
LINE
  8
0
 10
69.453000
 11
69.314000
 20
44.377000
 21
44.027000
  0
LINE
  8
0
 10
69.314000
 11
69.093000
 20
44.027000
 21
43.723000
  0
LINE
  8
0
 10
69.093000
 11
68.804000
 20
43.723000
 21
43.484000
  0
LINE
  8
0
 10
68.804000
 11
68.464000
 20
43.484000
 21
43.323000
  0
LINE
  8
0
 10
68.464000
 11
68.094000
 20
43.323000
 21
43.253000
  0
LINE
  8
0
 10
68.094000
 11
67.719000
 20
43.253000
 21
43.277000
  0
LINE
  8
0
 10
67.719000
 11
67.361000
 20
43.277000
 21
43.393000
  0
LINE
  8
0
 10
67.361000
 11
67.044000
 20
43.393000
 21
43.594000
  0
LINE
  8
0
 10
67.044000
 11
66.786000
 20
43.594000
 21
43.868000
  0
LINE
  8
0
 10
66.786000
 11
66.605000
 20
43.868000
 21
44.198000
  0
LINE
  8
0
 10
66.605000
 11
66.512000
 20
44.198000
 21
44.562000
  0
ENDSEC
  0
SECTION
  2
OBJECTS
  0
DICTIONARY
  0
ENDSEC
  0
EOF
